<svg xmlns="http://www.w3.org/2000/svg" viewBox="0 0 512 512" width="512" height="512">
  <defs><clipPath id="sq"><path d="M256,20 C128,20 20,128 20,256 C20,384 128,492 256,492 C384,492 492,384 492,256 C492,128 384,20 256,20 Z"/></clipPath>
    <linearGradient id="bgg" x1="0.2" y1="0" x2="0.8" y2="1"><stop offset="0" stop-color="#1a5038"/><stop offset="1" stop-color="#0f3325"/></linearGradient>
    <linearGradient id="gg" x1="0" y1="0" x2="1" y2="1"><stop offset="0" stop-color="#f2dca0"/><stop offset="0.55" stop-color="#d8b45e"/><stop offset="1" stop-color="#b8923f"/></linearGradient>
    <filter id="s" x="-30%" y="-30%" width="160%" height="160%"><feDropShadow dx="0" dy="7.0" stdDeviation="10.0" flood-color="#000" flood-opacity="0.30"/></filter>
  </defs>
  <g clip-path="url(#sq)">
    <rect width="512" height="512" fill="url(#bgg)"/>
    <g filter="url(#s)">
      <path d="M180.0,148.0 h76.0 v212.0 l-38.0,28.0 l-38.0,-28.0 Z" fill="url(#gg)"/>
      <path d="M256.0,148.0 h34.0 a108.0,108.0 0 0 1 0,216.0 h-34.0 v-62.0 h26.0 a46.0,46.0 0 0 0 0,-92.0 h-26.0 Z" fill="url(#gg)"/>
    </g>
  </g>
</svg>